0
SECTION
2
HEADER
9
$ACADVER
1
AC1015
9
$INSUNITS
70
4
0
ENDSEC
0
SECTION
2
TABLES
0
TABLE
2
LAYER
70
7
0
LAYER
2
A-WALL
70
0
62
7
6
CONTINUOUS
0
LAYER
2
A-DOOR
70
0
62
3
6
CONTINUOUS
0
LAYER
2
A-WINDOW
70
0
62
4
6
CONTINUOUS
0
LAYER
2
A-FURN
70
0
62
5
6
CONTINUOUS
0
LAYER
2
A-TEXT
70
0
62
6
6
CONTINUOUS
0
LAYER
2
A-DIMS
70
0
62
2
6
CONTINUOUS
0
LAYER
2
A-GRID
70
0
62
1
6
CONTINUOUS
0
ENDTAB
0
ENDSEC
0
SECTION
2
ENTITIES
0
LINE
8
A-WALL
10
0.0
20
-120.0
30
0.0
11
2900.0
21
-120.0
31
0.0
0
LINE
8
A-WALL
10
0.0
20
120.0
30
0.0
11
2900.0
21
120.0
31
0.0
0
LINE
8
A-WALL
10
0.0
20
-120.0
30
0.0
11
0.0
21
120.0
31
0.0
0
LINE
8
A-WALL
10
2900.0
20
-120.0
30
0.0
11
2900.0
21
120.0
31
0.0
0
LINE
8
A-WALL
10
3900.0
20
-120.0
30
0.0
11
12000.0
21
-120.0
31
0.0
0
LINE
8
A-WALL
10
3900.0
20
120.0
30
0.0
11
12000.0
21
120.0
31
0.0
0
LINE
8
A-WALL
10
3900.0
20
-120.0
30
0.0
11
3900.0
21
120.0
31
0.0
0
LINE
8
A-WALL
10
12000.0
20
-120.0
30
0.0
11
12000.0
21
120.0
31
0.0
0
LINE
8
A-WALL
10
11880.0
20
0.0
30
0.0
11
11880.0
21
5000.0
31
0.0
0
LINE
8
A-WALL
10
12120.0
20
0.0
30
0.0
11
12120.0
21
5000.0
31
0.0
0
LINE
8
A-WALL
10
11880.0
20
0.0
30
0.0
11
12120.0
21
0.0
31
0.0
0
LINE
8
A-WALL
10
11880.0
20
5000.0
30
0.0
11
12120.0
21
5000.0
31
0.0
0
LINE
8
A-WALL
10
11880.0
20
6800.0
30
0.0
11
11880.0
21
8000.0
31
0.0
0
LINE
8
A-WALL
10
12120.0
20
6800.0
30
0.0
11
12120.0
21
8000.0
31
0.0
0
LINE
8
A-WALL
10
11880.0
20
6800.0
30
0.0
11
12120.0
21
6800.0
31
0.0
0
LINE
8
A-WALL
10
11880.0
20
8000.0
30
0.0
11
12120.0
21
8000.0
31
0.0
0
LINE
8
A-WALL
10
12000.0
20
7880.0
30
0.0
11
13600.0
21
7880.0
31
0.0
0
LINE
8
A-WALL
10
12000.0
20
8120.0
30
0.0
11
13600.0
21
8120.0
31
0.0
0
LINE
8
A-WALL
10
12000.0
20
7880.0
30
0.0
11
12000.0
21
8120.0
31
0.0
0
LINE
8
A-WALL
10
13600.0
20
7880.0
30
0.0
11
13600.0
21
8120.0
31
0.0
0
LINE
8
A-WALL
10
15400.0
20
7880.0
30
0.0
11
16300.0
21
7880.0
31
0.0
0
LINE
8
A-WALL
10
15400.0
20
8120.0
30
0.0
11
16300.0
21
8120.0
31
0.0
0
LINE
8
A-WALL
10
15400.0
20
7880.0
30
0.0
11
15400.0
21
8120.0
31
0.0
0
LINE
8
A-WALL
10
16300.0
20
7880.0
30
0.0
11
16300.0
21
8120.0
31
0.0
0
LINE
8
A-WALL
10
-120.0
20
8000.0
30
0.0
11
-120.0
21
9700.0
31
0.0
0
LINE
8
A-WALL
10
120.0
20
8000.0
30
0.0
11
120.0
21
9700.0
31
0.0
0
LINE
8
A-WALL
10
-120.0
20
8000.0
30
0.0
11
120.0
21
8000.0
31
0.0
0
LINE
8
A-WALL
10
-120.0
20
9700.0
30
0.0
11
120.0
21
9700.0
31
0.0
0
LINE
8
A-WALL
10
7540.0
20
0.0
30
0.0
11
7540.0
21
5400.0
31
0.0
0
LINE
8
A-WALL
10
7660.0
20
0.0
30
0.0
11
7660.0
21
5400.0
31
0.0
0
LINE
8
A-WALL
10
7540.0
20
0.0
30
0.0
11
7660.0
21
0.0
31
0.0
0
LINE
8
A-WALL
10
7540.0
20
5400.0
30
0.0
11
7660.0
21
5400.0
31
0.0
0
LINE
8
A-WALL
10
7540.0
20
6300.0
30
0.0
11
7540.0
21
8000.0
31
0.0
0
LINE
8
A-WALL
10
7660.0
20
6300.0
30
0.0
11
7660.0
21
8000.0
31
0.0
0
LINE
8
A-WALL
10
7540.0
20
6300.0
30
0.0
11
7660.0
21
6300.0
31
0.0
0
LINE
8
A-WALL
10
7540.0
20
8000.0
30
0.0
11
7660.0
21
8000.0
31
0.0
0
LINE
8
A-WALL
10
0.0
20
4540.0
30
0.0
11
2700.0
21
4540.0
31
0.0
0
LINE
8
A-WALL
10
0.0
20
4660.0
30
0.0
11
2700.0
21
4660.0
31
0.0
0
LINE
8
A-WALL
10
0.0
20
4540.0
30
0.0
11
0.0
21
4660.0
31
0.0
0
LINE
8
A-WALL
10
2700.0
20
4540.0
30
0.0
11
2700.0
21
4660.0
31
0.0
0
LINE
8
A-WALL
10
3600.0
20
4540.0
30
0.0
11
7600.0
21
4540.0
31
0.0
0
LINE
8
A-WALL
10
3600.0
20
4660.0
30
0.0
11
7600.0
21
4660.0
31
0.0
0
LINE
8
A-WALL
10
3600.0
20
4540.0
30
0.0
11
3600.0
21
4660.0
31
0.0
0
LINE
8
A-WALL
10
7600.0
20
4540.0
30
0.0
11
7600.0
21
4660.0
31
0.0
0
LINE
8
A-WALL
10
7600.0
20
2940.0
30
0.0
11
16600.0
21
2940.0
31
0.0
0
LINE
8
A-WALL
10
7600.0
20
3060.0
30
0.0
11
16600.0
21
3060.0
31
0.0
0
LINE
8
A-WALL
10
7600.0
20
2940.0
30
0.0
11
7600.0
21
3060.0
31
0.0
0
LINE
8
A-WALL
10
16600.0
20
2940.0
30
0.0
11
16600.0
21
3060.0
31
0.0
0
ARC
8
A-DOOR
10
2900.0
20
120.0
30
0.0
40
1000.0
50
0.00
51
90.00
0
LINE
8
A-DOOR
10
2900.0
20
120.0
30
0.0
11
2900.0
21
1120.0
31
0.0
0
ARC
8
A-DOOR
10
7480.0
20
5400.0
30
0.0
40
900.0
50
0.00
51
90.00
0
LINE
8
A-DOOR
10
7480.0
20
5400.0
30
0.0
11
8380.0
21
5400.0
31
0.0
0
ARC
8
A-DOOR
10
9000.0
20
3060.0
30
0.0
40
800.0
50
0.00
51
90.00
0
LINE
8
A-DOOR
10
9000.0
20
3060.0
30
0.0
11
9000.0
21
3860.0
31
0.0
0
ARC
8
A-DOOR
10
2700.0
20
4480.0
30
0.0
40
900.0
50
0.00
51
90.00
0
LINE
8
A-DOOR
10
2700.0
20
4480.0
30
0.0
11
2700.0
21
5380.0
31
0.0
0
ARC
8
A-DOOR
10
7660.0
20
6300.0
30
0.0
40
0.1
50
0.00
51
90.00
0
LINE
8
A-DOOR
10
7660.0
20
6300.0
30
0.0
11
7660.0
21
6300.1
31
0.0
0
LINE
8
A-WINDOW
10
1600.0
20
7808.0
30
0.0
11
3400.0
21
7808.0
31
0.0
0
LINE
8
A-WINDOW
10
1600.0
20
7880.0
30
0.0
11
3400.0
21
7880.0
31
0.0
0
LINE
8
A-WINDOW
10
1600.0
20
7952.0
30
0.0
11
3400.0
21
7952.0
31
0.0
0
LINE
8
A-WINDOW
10
4300.0
20
7808.0
30
0.0
11
6100.0
21
7808.0
31
0.0
0
LINE
8
A-WINDOW
10
4300.0
20
7880.0
30
0.0
11
6100.0
21
7880.0
31
0.0
0
LINE
8
A-WINDOW
10
4300.0
20
7952.0
30
0.0
11
6100.0
21
7952.0
31
0.0
0
LINE
8
A-WINDOW
10
11808.0
20
5000.0
30
0.0
11
11808.0
21
6800.0
31
0.0
0
LINE
8
A-WINDOW
10
11880.0
20
5000.0
30
0.0
11
11880.0
21
6800.0
31
0.0
0
LINE
8
A-WINDOW
10
11952.0
20
5000.0
30
0.0
11
11952.0
21
6800.0
31
0.0
0
LINE
8
A-WINDOW
10
48.0
20
1700.0
30
0.0
11
48.0
21
3300.0
31
0.0
0
LINE
8
A-WINDOW
10
120.0
20
1700.0
30
0.0
11
120.0
21
3300.0
31
0.0
0
LINE
8
A-WINDOW
10
192.0
20
1700.0
30
0.0
11
192.0
21
3300.0
31
0.0
0
LWPOLYLINE
8
A-FURN
90
4
70
1
10
600.0
20
6900.0
10
2000.0
20
6900.0
10
2000.0
20
7600.0
10
600.0
20
7600.0
0
CIRCLE
8
A-FURN
10
1300.0
20
6480.0
30
0.0
40
260.0
0
ARC
8
A-FURN
10
1300.0
20
6480.0
30
0.0
40
420.0
50
200.00
51
340.00
0
LWPOLYLINE
8
A-FURN
90
4
70
1
10
2350.0
20
6900.0
10
3750.0
20
6900.0
10
3750.0
20
7600.0
10
2350.0
20
7600.0
0
CIRCLE
8
A-FURN
10
3050.0
20
6480.0
30
0.0
40
260.0
0
ARC
8
A-FURN
10
3050.0
20
6480.0
30
0.0
40
420.0
50
200.00
51
340.00
0
LWPOLYLINE
8
A-FURN
90
4
70
1
10
4100.0
20
6900.0
10
5500.0
20
6900.0
10
5500.0
20
7600.0
10
4100.0
20
7600.0
0
CIRCLE
8
A-FURN
10
4800.0
20
6480.0
30
0.0
40
260.0
0
ARC
8
A-FURN
10
4800.0
20
6480.0
30
0.0
40
420.0
50
200.00
51
340.00
0
LWPOLYLINE
8
A-FURN
90
4
70
1
10
5850.0
20
6900.0
10
7250.0
20
6900.0
10
7250.0
20
7600.0
10
5850.0
20
7600.0
0
CIRCLE
8
A-FURN
10
6550.0
20
6480.0
30
0.0
40
260.0
0
ARC
8
A-FURN
10
6550.0
20
6480.0
30
0.0
40
420.0
50
200.00
51
340.00
0
LWPOLYLINE
8
A-FURN
90
4
70
1
10
900.0
20
3400.0
10
2300.0
20
3400.0
10
2300.0
20
4100.0
10
900.0
20
4100.0
0
CIRCLE
8
A-FURN
10
1600.0
20
2980.0
30
0.0
40
260.0
0
ARC
8
A-FURN
10
1600.0
20
2980.0
30
0.0
40
420.0
50
200.00
51
340.00
0
LWPOLYLINE
8
A-FURN
90
4
70
1
10
2800.0
20
3400.0
10
4200.0
20
3400.0
10
4200.0
20
4100.0
10
2800.0
20
4100.0
0
CIRCLE
8
A-FURN
10
3500.0
20
2980.0
30
0.0
40
260.0
0
ARC
8
A-FURN
10
3500.0
20
2980.0
30
0.0
40
420.0
50
200.00
51
340.00
0
LWPOLYLINE
8
A-FURN
90
4
70
1
10
8300.0
20
4300.0
10
11200.0
20
4300.0
10
11200.0
20
6500.0
10
8300.0
20
6500.0
0
CIRCLE
8
A-FURN
10
8700.0
20
4050.0
30
0.0
40
250.0
0
CIRCLE
8
A-FURN
10
8700.0
20
6750.0
30
0.0
40
250.0
0
CIRCLE
8
A-FURN
10
9700.0
20
4050.0
30
0.0
40
250.0
0
CIRCLE
8
A-FURN
10
9700.0
20
6750.0
30
0.0
40
250.0
0
CIRCLE
8
A-FURN
10
10700.0
20
4050.0
30
0.0
40
250.0
0
CIRCLE
8
A-FURN
10
10700.0
20
6750.0
30
0.0
40
250.0
0
LWPOLYLINE
8
A-FURN
90
4
70
1
10
7900.0
20
400.0
10
11600.0
20
400.0
10
11600.0
20
750.0
10
7900.0
20
750.0
0
LWPOLYLINE
8
A-FURN
90
4
70
1
10
7900.0
20
880.0
10
11600.0
20
880.0
10
11600.0
20
1230.0
10
7900.0
20
1230.0
0
LWPOLYLINE
8
A-FURN
90
4
70
1
10
7900.0
20
1360.0
10
11600.0
20
1360.0
10
11600.0
20
1710.0
10
7900.0
20
1710.0
0
LWPOLYLINE
8
A-FURN
90
4
70
1
10
7900.0
20
1840.0
10
11600.0
20
1840.0
10
11600.0
20
2190.0
10
7900.0
20
2190.0
0
LWPOLYLINE
8
A-FURN
90
4
70
1
10
7900.0
20
2320.0
10
11600.0
20
2320.0
10
11600.0
20
2670.0
10
7900.0
20
2670.0
0
TEXT
8
A-TEXT
10
2600.0
20
7200.0
30
0.0
40
420.0
1
OFFICE A
0
TEXT
8
A-TEXT
10
2800.0
20
6850.0
30
0.0
40
240.0
1
42.5 m2
0
TEXT
8
A-TEXT
10
2600.0
20
3800.0
30
0.0
40
420.0
1
OFFICE B
0
TEXT
8
A-TEXT
10
2800.0
20
3450.0
30
0.0
40
240.0
1
35.0 m2
0
TEXT
8
A-TEXT
10
8700.0
20
7300.0
30
0.0
40
420.0
1
MEETING ROOM
0
TEXT
8
A-TEXT
10
8900.0
20
6950.0
30
0.0
40
240.0
1
28.0 m2
0
TEXT
8
A-TEXT
10
8400.0
20
2000.0
30
0.0
40
420.0
1
STORAGE
0
TEXT
8
A-TEXT
10
8600.0
20
1650.0
30
0.0
40
240.0
1
18.4 m2
0
TEXT
8
A-TEXT
10
240.0
20
150.0
30
0.0
40
260.0
1
DEMO FLOOR PLAN  |  SCALE 1:50  |  UNITS: mm
0
LINE
8
A-DIMS
10
0.0
20
0.0
30
0.0
11
0.0
21
-600.0
31
0.0
0
LINE
8
A-DIMS
10
12000.0
20
0.0
30
0.0
11
12000.0
21
-600.0
31
0.0
0
LINE
8
A-DIMS
10
0.0
20
-900.0
30
0.0
11
12000.0
21
-900.0
31
0.0
0
LINE
8
A-DIMS
10
-100.0
20
-1000.0
30
0.0
11
100.0
21
-800.0
31
0.0
0
LINE
8
A-DIMS
10
-100.0
20
-800.0
30
0.0
11
100.0
21
-1000.0
31
0.0
0
LINE
8
A-DIMS
10
11900.0
20
-1000.0
30
0.0
11
12100.0
21
-800.0
31
0.0
0
LINE
8
A-DIMS
10
11900.0
20
-800.0
30
0.0
11
12100.0
21
-1000.0
31
0.0
0
TEXT
8
A-DIMS
10
5400.0
20
-720.0
30
0.0
40
300.0
1
12000
0
LINE
8
A-DIMS
10
0.0
20
0.0
30
0.0
11
-600.0
21
0.0
31
0.0
0
LINE
8
A-DIMS
10
0.0
20
8000.0
30
0.0
11
-600.0
21
8000.0
31
0.0
0
LINE
8
A-DIMS
10
-900.0
20
0.0
30
0.0
11
-900.0
21
8000.0
31
0.0
0
LINE
8
A-DIMS
10
-1000.0
20
-100.0
30
0.0
11
-800.0
21
100.0
31
0.0
0
LINE
8
A-DIMS
10
-1000.0
20
100.0
30
0.0
11
-800.0
21
-100.0
31
0.0
0
LINE
8
A-DIMS
10
-1000.0
20
7900.0
30
0.0
11
-800.0
21
8100.0
31
0.0
0
LINE
8
A-DIMS
10
-1000.0
20
8100.0
30
0.0
11
-800.0
21
7900.0
31
0.0
0
TEXT
8
A-DIMS
10
-720.0
20
3700.0
30
0.0
40
300.0
1
8000
0
LINE
8
A-DIMS
10
0.0
20
4600.0
30
0.0
11
0.0
21
4900.0
31
0.0
0
LINE
8
A-DIMS
10
7600.0
20
4600.0
30
0.0
11
7600.0
21
4900.0
31
0.0
0
LINE
8
A-DIMS
10
0.0
20
4600.0
30
0.0
11
7600.0
21
4600.0
31
0.0
0
LINE
8
A-DIMS
10
-100.0
20
4500.0
30
0.0
11
100.0
21
4700.0
31
0.0
0
LINE
8
A-DIMS
10
-100.0
20
4700.0
30
0.0
11
100.0
21
4500.0
31
0.0
0
LINE
8
A-DIMS
10
7500.0
20
4500.0
30
0.0
11
7700.0
21
4700.0
31
0.0
0
LINE
8
A-DIMS
10
7500.0
20
4700.0
30
0.0
11
7700.0
21
4500.0
31
0.0
0
TEXT
8
A-DIMS
10
3200.0
20
4780.0
30
0.0
40
300.0
1
7600
0
LINE
8
A-DIMS
10
7600.0
20
0.0
30
0.0
11
7900.0
21
0.0
31
0.0
0
LINE
8
A-DIMS
10
7600.0
20
8000.0
30
0.0
11
7900.0
21
8000.0
31
0.0
0
LINE
8
A-DIMS
10
7600.0
20
0.0
30
0.0
11
7600.0
21
8000.0
31
0.0
0
LINE
8
A-DIMS
10
7500.0
20
-100.0
30
0.0
11
7700.0
21
100.0
31
0.0
0
LINE
8
A-DIMS
10
7500.0
20
100.0
30
0.0
11
7700.0
21
-100.0
31
0.0
0
LINE
8
A-DIMS
10
7500.0
20
7900.0
30
0.0
11
7700.0
21
8100.0
31
0.0
0
LINE
8
A-DIMS
10
7500.0
20
8100.0
30
0.0
11
7700.0
21
7900.0
31
0.0
0
TEXT
8
A-DIMS
10
7780.0
20
3700.0
30
0.0
40
300.0
1
8000
0
CIRCLE
8
A-GRID
10
0.0
20
0.0
30
0.0
40
260.0
0
LINE
8
A-GRID
10
-420.0
20
0.0
30
0.0
11
420.0
21
0.0
31
0.0
0
LINE
8
A-GRID
10
0.0
20
-420.0
30
0.0
11
0.0
21
420.0
31
0.0
0
CIRCLE
8
A-GRID
10
0.0
20
3000.0
30
0.0
40
260.0
0
LINE
8
A-GRID
10
-420.0
20
3000.0
30
0.0
11
420.0
21
3000.0
31
0.0
0
LINE
8
A-GRID
10
0.0
20
2580.0
30
0.0
11
0.0
21
3420.0
31
0.0
0
CIRCLE
8
A-GRID
10
0.0
20
8000.0
30
0.0
40
260.0
0
LINE
8
A-GRID
10
-420.0
20
8000.0
30
0.0
11
420.0
21
8000.0
31
0.0
0
LINE
8
A-GRID
10
0.0
20
7580.0
30
0.0
11
0.0
21
8420.0
31
0.0
0
CIRCLE
8
A-GRID
10
4000.0
20
0.0
30
0.0
40
260.0
0
LINE
8
A-GRID
10
3580.0
20
0.0
30
0.0
11
4420.0
21
0.0
31
0.0
0
LINE
8
A-GRID
10
4000.0
20
-420.0
30
0.0
11
4000.0
21
420.0
31
0.0
0
CIRCLE
8
A-GRID
10
4000.0
20
3000.0
30
0.0
40
260.0
0
LINE
8
A-GRID
10
3580.0
20
3000.0
30
0.0
11
4420.0
21
3000.0
31
0.0
0
LINE
8
A-GRID
10
4000.0
20
2580.0
30
0.0
11
4000.0
21
3420.0
31
0.0
0
CIRCLE
8
A-GRID
10
4000.0
20
8000.0
30
0.0
40
260.0
0
LINE
8
A-GRID
10
3580.0
20
8000.0
30
0.0
11
4420.0
21
8000.0
31
0.0
0
LINE
8
A-GRID
10
4000.0
20
7580.0
30
0.0
11
4000.0
21
8420.0
31
0.0
0
CIRCLE
8
A-GRID
10
7600.0
20
0.0
30
0.0
40
260.0
0
LINE
8
A-GRID
10
7180.0
20
0.0
30
0.0
11
8020.0
21
0.0
31
0.0
0
LINE
8
A-GRID
10
7600.0
20
-420.0
30
0.0
11
7600.0
21
420.0
31
0.0
0
CIRCLE
8
A-GRID
10
7600.0
20
3000.0
30
0.0
40
260.0
0
LINE
8
A-GRID
10
7180.0
20
3000.0
30
0.0
11
8020.0
21
3000.0
31
0.0
0
LINE
8
A-GRID
10
7600.0
20
2580.0
30
0.0
11
7600.0
21
3420.0
31
0.0
0
CIRCLE
8
A-GRID
10
7600.0
20
8000.0
30
0.0
40
260.0
0
LINE
8
A-GRID
10
7180.0
20
8000.0
30
0.0
11
8020.0
21
8000.0
31
0.0
0
LINE
8
A-GRID
10
7600.0
20
7580.0
30
0.0
11
7600.0
21
8420.0
31
0.0
0
CIRCLE
8
A-GRID
10
12000.0
20
0.0
30
0.0
40
260.0
0
LINE
8
A-GRID
10
11580.0
20
0.0
30
0.0
11
12420.0
21
0.0
31
0.0
0
LINE
8
A-GRID
10
12000.0
20
-420.0
30
0.0
11
12000.0
21
420.0
31
0.0
0
CIRCLE
8
A-GRID
10
12000.0
20
3000.0
30
0.0
40
260.0
0
LINE
8
A-GRID
10
11580.0
20
3000.0
30
0.0
11
12420.0
21
3000.0
31
0.0
0
LINE
8
A-GRID
10
12000.0
20
2580.0
30
0.0
11
12000.0
21
3420.0
31
0.0
0
CIRCLE
8
A-GRID
10
12000.0
20
8000.0
30
0.0
40
260.0
0
LINE
8
A-GRID
10
11580.0
20
8000.0
30
0.0
11
12420.0
21
8000.0
31
0.0
0
LINE
8
A-GRID
10
12000.0
20
7580.0
30
0.0
11
12000.0
21
8420.0
31
0.0
0
ENDSEC
0
EOF
