0
SECTION
2
HEADER
9
$ACADVER
1
AC1027
0
ENDSEC
0
SECTION
2
TABLES
0
TABLE
2
LAYER
70
5
0
LAYER
2
WALL
70
0
62
1
6
Continuous
0
LAYER
2
DOOR
70
0
62
3
6
Continuous
0
LAYER
2
WINDOW
70
0
62
4
6
Continuous
0
LAYER
2
DIM
70
0
62
6
6
Continuous
0
LAYER
2
FURN
70
0
62
2
6
Continuous
0
ENDTAB
0
ENDSEC
0
SECTION
2
ENTITIES
0
LINE
8
WALL
62
1
10
-100
20
-80
30
0.0
11
100
21
-80
31
0.0
0
LINE
8
WALL
62
1
10
100
20
-80
30
0.0
11
100
21
80
31
0.0
0
LINE
8
WALL
62
1
10
100
20
80
30
0.0
11
-100
21
80
31
0.0
0
LINE
8
WALL
62
1
10
-100
20
80
30
0.0
11
-100
21
-80
31
0.0
0
ARC
8
DOOR
62
3
10
0
20
-80
30
0.0
40
38
50
180
51
0
0
LINE
8
DOOR
62
3
10
-38
20
-80
30
0.0
11
38
21
-80
31
0.0
0
LINE
8
WINDOW
62
4
10
-60
20
-80
30
0.0
11
-20
21
-80
31
0.0
0
LINE
8
WINDOW
62
4
10
20
20
-80
30
0.0
11
60
21
-80
31
0.0
0
LINE
8
WINDOW
62
4
10
-80
20
0
30
0.0
11
-80
21
40
31
0.0
0
LINE
8
DIM
62
6
10
-110
20
-90
30
0.0
11
-110
21
90
31
0.0
0
CIRCLE
8
FURN
62
2
10
60
20
40
30
0.0
40
15
0
TEXT
8
FURN
10
0
20
-110
30
0.0
40
5
1
Rocktier CAD Viewer
0
ENDSEC
0
EOF
