0
SECTION
2
HEADER
9
$ACADVER
1
AC1027
0
ENDSEC
0
SECTION
2
TABLES
0
TABLE
2
LAYER
70
1
0
LAYER
2
0
70
0
62
7
6
Continuous
0
ENDTAB
0
ENDSEC
0
SECTION
2
BLOCKS
0
BLOCK
2
WIN
8
0
10
0.0
20
0.0
30
0.0
70
0
0
LWPOLYLINE
8
0
90
4
70
1
10
-10
20
-10
10
10
20
-10
10
10
20
10
10
-10
20
10
0
LINE
8
0
10
-10
20
0
30
0.0
11
10
22
0
32
0.0
0
LINE
8
0
10
0
20
-10
30
0.0
11
0
22
10
32
0.0
0
ENDBLK
0
BLOCK
2
DOOR
8
0
10
0.0
20
0.0
30
0.0
70
0
0
LINE
8
0
10
-20
20
0
30
0.0
11
20
22
0
32
0.0
0
ENDBLK
0
BLOCK
2
ROOM
8
0
10
0.0
20
0.0
30
0.0
70
0
0
LWPOLYLINE
8
0
90
4
70
1
10
-100
20
-60
10
100
20
-60
10
100
20
60
10
-100
20
60
0
INSERT
8
0
2
WIN
10
-50
20
0
30
0.0
0
INSERT
8
0
2
WIN
10
50
20
0
30
0.0
0
INSERT
8
0
2
DOOR
10
0
20
-60
30
0.0
0
ENDBLK
0
ENDSEC
0
SECTION
2
ENTITIES
0
INSERT
8
0
62
7
2
ROOM
10
-100
20
0
30
0.0
0
INSERT
8
0
62
7
2
ROOM
10
150
20
0
30
0.0
0
ENDSEC
0
EOF
