0
SECTION
2
HEADER
9
$ACADVER
1
AC1027
0
ENDSEC
0
SECTION
2
TABLES
0
TABLE
2
LAYER
70
1
0
LAYER
2
0
70
0
62
7
6
Continuous
0
ENDTAB
0
ENDSEC
0
SECTION
2
ENTITIES
0
TEXT
8
0
62
216
10
0
20
0
30
0.0
40
3
1
Hello DXF \Pmulti\Pline
0
TEXT
8
0
10
0
20
10
30
0.0
40
3
1
%%d=degree  %%c=dia  %%p=plus/minus
0
MTEXT
8
0
62
130
10
0
20
25
30
0.0
40
3
1
Stacked\S1/2; fraction
0
POINT
8
0
62
3
10
0
20
40
30
0.0
0
CIRCLE
8
0
10
0
20
40
30
0.0
40
5
0
SOLID
8
0
62
8
10
-10
20
50
30
0.0
11
10
21
50
31
0.0
12
-5
22
60
32
0.0
13
5
23
60
33
0.0
0
ENDSEC
0
EOF
