0
SECTION
2
HEADER
9
$ACADVER
1
AC1027
0
ENDSEC
0
SECTION
2
TABLES
0
TABLE
2
LAYER
70
2
0
LAYER
2
0
70
0
62
7
6
Continuous
0
LAYER
2
TITLE
70
0
62
4
6
Continuous
0
ENDTAB
0
ENDSEC
0
SECTION
2
BLOCKS
0
BLOCK
2
*Paper_Space
8
0
10
0.0
20
0.0
30
0.0
70
0
0
TEXT
8
TITLE
1
SHEET A1 标题栏
10
0
20
80
30
0.0
40
5
0
LINE
8
TITLE
10
-80
20
60
30
0.0
11
80
21
60
31
0.0
0
ENDBLK
0
ENDSEC
0
SECTION
2
ENTITIES
0
LINE
8
0
62
1
10
-50
20
-50
30
0.0
11
50
21
50
31
0.0
0
LINE
8
0
62
3
10
50
20
-50
30
0.0
11
-50
21
50
31
0.0
0
CIRCLE
8
0
62
5
10
0
20
0
30
0.0
40
35
0
TEXT
8
0
10
0
20
60
30
0.0
40
2.5
1
MODEL SPACE 模型空间
0
ENDSEC
0
EOF
