0
SECTION
2
TABLES
0
TABLE
2
LAYER
70
3
0
LAYER
2
0
70
0
62
7
6
Continuous
0
LAYER
2
TITLE
70
0
62
4
6
Continuous
0
LAYER
2
MODEL
70
0
62
2
6
Continuous
0
ENDTAB
0
ENDSEC
0
SECTION
2
BLOCKS
0
BLOCK
2
*Paper_Space
8
0
10
0.0
20
0.0
30
0.0
70
0
0
LINE
8
TITLE
10
0.0
20
0.0
11
297.0
21
0.0
0
LINE
8
TITLE
10
297.0
20
0.0
11
297.0
21
210.0
0
LINE
8
TITLE
10
297.0
20
210.0
11
0.0
21
210.0
0
LINE
8
TITLE
10
0.0
20
210.0
11
0.0
21
0.0
0
TEXT
8
TITLE
1
SHEET 1:100
10
10.0
20
200.0
40
5.0
0
VIEWPORT
8
0
10
150.0
20
105.0
40
180.0
41
120.0
45
60.0
12
50.0
22
30.0
69
2
0
ENDBLK
0
ENDSEC
0
SECTION
2
ENTITIES
0
LINE
8
MODEL
10
0.0
20
0.0
11
100.0
21
0.0
0
LINE
8
MODEL
10
100.0
20
0.0
11
100.0
21
60.0
0
LINE
8
MODEL
10
100.0
20
60.0
11
0.0
21
60.0
0
LINE
8
MODEL
10
0.0
20
60.0
11
0.0
21
0.0
0
ENDSEC
0
EOF
